<svg xmlns="http://www.w3.org/2000/svg" xmlns:xlink="http://www.w3.org/1999/xlink" width="1024" zoomAndPan="magnify" viewBox="0 0 768 767.999994" height="1024" preserveAspectRatio="xMidYMid meet" version="1.0"><defs><clipPath id="262e24e905"><path d="M 28.023438 87.203125 L 286 87.203125 L 286 266 L 28.023438 266 Z M 28.023438 87.203125 " clip-rule="nonzero"/></clipPath><clipPath id="17b56746f1"><path d="M 482 87.203125 L 739.773438 87.203125 L 739.773438 266 L 482 266 Z M 482 87.203125 " clip-rule="nonzero"/></clipPath><clipPath id="c94fdef2cc"><path d="M 383 265 L 739.773438 265 L 739.773438 680.453125 L 383 680.453125 Z M 383 265 " clip-rule="nonzero"/></clipPath><clipPath id="aa0ec3ba3a"><path d="M 28.023438 87.203125 L 543 87.203125 L 543 680.453125 L 28.023438 680.453125 Z M 28.023438 87.203125 " clip-rule="nonzero"/></clipPath><clipPath id="10e88ad029"><path d="M 225 265 L 543 265 L 543 680.453125 L 225 680.453125 Z M 225 265 " clip-rule="nonzero"/></clipPath></defs><g clip-path="url(#262e24e905)"><path fill="#bdddf4" d="M 285.042969 87.355469 L 166.417969 87.355469 L 28.023438 265.238281 L 225.730469 265.238281 Z M 285.042969 87.355469 " fill-opacity="1" fill-rule="nonzero"/></g><g clip-path="url(#17b56746f1)"><path fill="#5dadec" d="M 739.773438 265.238281 L 601.378906 87.355469 L 482.753906 87.355469 L 542.066406 265.238281 Z M 739.773438 265.238281 " fill-opacity="1" fill-rule="nonzero"/></g><g clip-path="url(#c94fdef2cc)"><path fill="#4289c1" d="M 542.066406 265.238281 L 739.773438 265.238281 L 383.898438 680.304688 Z M 542.066406 265.238281 " fill-opacity="1" fill-rule="nonzero"/></g><g clip-path="url(#aa0ec3ba3a)"><path fill="#8ccaf7" d="M 225.730469 265.238281 L 28.023438 265.238281 L 383.898438 680.304688 Z M 285.042969 87.355469 L 225.730469 265.238281 L 542.066406 265.238281 L 482.753906 87.355469 Z M 285.042969 87.355469 " fill-opacity="1" fill-rule="nonzero"/></g><g clip-path="url(#10e88ad029)"><path fill="#5dadec" d="M 383.898438 680.304688 L 225.730469 265.238281 L 542.066406 265.238281 Z M 383.898438 680.304688 " fill-opacity="1" fill-rule="nonzero"/></g></svg>